<svg xmlns="http://www.w3.org/2000/svg" version="1.1" xmlns:xlink="http://www.w3.org/1999/xlink" xmlns:svgjs="http://svgjs.com/svgjs" width="1000" height="1000"><g transform="matrix(6.50702758979698,0,0,6.50702758979698,44.86591489697548,0.000020167337368093285)"><svg xmlns="http://www.w3.org/2000/svg" version="1.1" xmlns:xlink="http://www.w3.org/1999/xlink" xmlns:svgjs="http://svgjs.com/svgjs" width="139.89" height="153.68"><svg xmlns="http://www.w3.org/2000/svg" id="Layer_2" data-name="Layer 2" viewBox="0 0 139.89 153.68"><defs><style>.cls-1{fill:#144ff0;stroke:#144ff0;stroke-miterlimit:10}</style></defs><g id="Layer_1-2" data-name="Layer 1"><circle cx="7.46" cy="7.46" r="6.96" class="cls-1"></circle><circle cx="35.34" cy="7.46" r="6.96" class="cls-1"></circle><circle cx="7.46" cy="35.04" r="6.96" class="cls-1"></circle><circle cx="35.34" cy="35.04" r="6.96" class="cls-1"></circle><circle cx="7.55" cy="118.59" r="6.96" class="cls-1"></circle><circle cx="35.44" cy="118.59" r="6.96" class="cls-1"></circle><circle cx="132.43" cy="7.46" r="6.96" class="cls-1"></circle><circle cx="77.01" cy="62.97" r="6.96" class="cls-1"></circle><circle cx="77.01" cy="90.96" r="6.96" class="cls-1"></circle><rect width="55.57" height="13.91" x="56.18" y=".5" class="cls-1" rx="6.09" ry="6.09"></rect><rect width="55.57" height="13.91" x=".6" y="56.02" class="cls-1" rx="6.09" ry="6.09"></rect><rect width="55.57" height="13.91" x=".6" y="84" class="cls-1" rx="6.09" ry="6.09"></rect><rect width="55.57" height="13.91" x=".6" y="139.27" class="cls-1" rx="6.09" ry="6.09"></rect></g></svg></svg></g></svg>